HIERARCHY
ROOT hip
{
	OFFSET 0.000000 0.000000 0.000000 
	CHANNELS 6 Xposition Yposition Zposition Zrotation Xrotation Yrotation
	JOINT abdomen
	{
		OFFSET 0.000000 3.402643 0.000000 
		CHANNELS 3 Zrotation Xrotation Yrotation
		JOINT chest
		{
			OFFSET 0.000000 8.438565 -0.680529 
			CHANNELS 3 Zrotation Xrotation Yrotation
			JOINT neck
			{
				OFFSET 0.000000 10.207942 -0.272212 
				CHANNELS 3 Zrotation Xrotation Yrotation
				JOINT head
				{
					OFFSET 0.000000 3.130431 0.000000 
					CHANNELS 3 Zrotation Xrotation Yrotation
					End Site
					{
						OFFSET 0.000000 3.130435 0.000000 
					}
				}
			}
			JOINT lCollar
			{
				OFFSET 3.470700 6.669187 -0.816635 
				CHANNELS 3 Zrotation Xrotation Yrotation
				JOINT lShldr
				{
					OFFSET 3.198488 0.000000 0.000000 
					CHANNELS 3 Zrotation Xrotation Yrotation
					JOINT lForeArm
					{
						OFFSET 10.139888 0.000000 0.000000 
						CHANNELS 3 Zrotation Xrotation Yrotation
						JOINT lHand
						{
							OFFSET 8.370511 0.000000 0.000000 
							CHANNELS 3 Zrotation Xrotation Yrotation
							End Site
							{
								OFFSET 4.083176 0.000000 0.000000 
							}
						}
					}
				}
			}
			JOINT rCollar
			{
				OFFSET -3.470700 6.669187 -0.816635 
				CHANNELS 3 Zrotation Xrotation Yrotation
				JOINT rShldr
				{
					OFFSET -3.198488 0.000000 0.000000 
					CHANNELS 3 Zrotation Xrotation Yrotation
					JOINT rForeArm
					{
						OFFSET -10.139888 0.000000 0.000000 
						CHANNELS 3 Zrotation Xrotation Yrotation
						JOINT rHand
						{
							OFFSET -8.370511 0.000000 0.000000 
							CHANNELS 3 Zrotation Xrotation Yrotation
							End Site
							{
								OFFSET -4.083176 0.000000 0.000000 
							}
						}
					}
				}
			}
		}
	}
	JOINT lThigh
	{
		OFFSET 5.308129 -1.633274 1.361059 
		CHANNELS 3 Zrotation Xrotation Yrotation
		JOINT lShin
		{
			OFFSET -2.041588 -20.007561 0.000000 
			CHANNELS 3 Zrotation Xrotation Yrotation
			JOINT lFoot
			{
				OFFSET 0.000000 -19.190928 -1.224953 
				CHANNELS 3 Zrotation Xrotation Yrotation
				End Site
				{
					OFFSET 0.000000 -2.449906 4.627600 
				}
			}
		}
	}
	JOINT rThigh
	{
		OFFSET -5.308129 -1.633274 1.361059 
		CHANNELS 3 Zrotation Xrotation Yrotation
		JOINT rShin
		{
			OFFSET 2.041588 -20.007561 0.000000 
			CHANNELS 3 Zrotation Xrotation Yrotation
			JOINT rFoot
			{
				OFFSET 0.000000 -19.190928 -1.224953 
				CHANNELS 3 Zrotation Xrotation Yrotation
				End Site
				{
					OFFSET 0.000000 -2.449906 4.627600 
				}
			}
		}
	}
}
MOTION
Frames: 11
Frame Time: 0.033333
-2.044409 45.282661 -17.065477 2.930374 -1.238638 46.802193 -0.000000 -0.000002 -0.000000 -3.947143 1.743906 -35.329571 -2.026580 19.178329 -1.873065 -0.954937 -15.993991 -0.145955 -2.000757 -0.069240 1.990978 -58.186413 5.380896 3.462543 5.316608 7.561642 -65.598228 -61.769844 42.528191 18.544067 1.990970 -0.069577 -2.000746 87.245926 11.228055 1.254485 -14.432925 2.638234 81.904587 -141.748108 -75.627823 -131.564819 11.336164 -19.756907 -2.385125 -12.617261 51.552502 7.003440 -5.352451 -27.968147 -11.884020 -32.186234 -16.470892 -29.358795 7.879177 29.262018 0.924155 6.228093 -2.670195 -14.207222 
-1.390151 45.376686 -17.915321 3.585879 -1.861603 45.448681 -0.000000 -0.000002 -0.000000 -6.066775 1.582888 -51.385563 -6.523650 19.385122 14.009609 -0.954937 -15.993991 -0.145955 -2.000757 -0.069240 1.990978 -46.606926 -4.190943 -12.308811 4.940561 8.202798 -58.531940 -95.819260 36.888191 32.393284 1.990970 -0.069577 -2.000746 95.506012 18.382586 -6.258013 -14.602186 1.026142 88.077507 -130.260803 -60.243114 -105.227623 10.235549 -18.290199 -2.243450 -12.158257 50.668121 6.634878 -4.290428 -27.631504 -10.204822 -31.645458 -17.044018 -26.523125 5.995031 28.269527 1.648517 8.117451 -1.344259 -15.746305 
-0.889059 45.430004 -16.774410 4.088752 -3.282654 42.832176 -0.000000 -0.000002 -0.000000 -8.139860 2.020474 -67.437065 -10.689872 18.080872 29.776964 -0.954937 -15.993991 -0.145955 -2.000757 -0.069240 1.990978 -35.117016 -14.690422 -21.964342 4.664738 8.578424 -54.090050 -113.493263 29.718210 35.567455 1.990970 -0.069577 -2.000746 99.480789 26.418598 -6.818451 -14.592055 -0.426094 93.612709 -127.423393 -47.557194 -92.957962 11.391141 -14.721826 -2.505268 -11.725571 50.001411 6.266827 -5.457290 -29.110266 -8.475101 -31.240423 -17.076937 -23.378448 9.591377 31.217663 0.167071 6.058759 -3.933620 -15.880239 
-0.387963 45.479836 -15.633506 4.666325 -5.012716 39.969166 -0.000000 -0.000002 -0.000000 -8.707643 2.200926 -74.693771 -13.026324 16.359436 36.050415 -0.954937 -15.993991 -0.145955 -2.000757 -0.069240 1.990978 -30.228966 -22.751299 -33.597263 4.732886 8.504581 -55.060490 -109.410950 27.442778 30.861048 1.990970 -0.069577 -2.000746 93.762680 26.451004 12.377542 -14.490762 -1.697573 98.439133 -119.352264 -41.089657 -87.132164 12.056853 -10.773261 -2.817627 -11.479101 49.748257 6.051661 -6.105206 -31.098232 -6.293593 -30.041716 -16.867910 -20.238491 11.017134 33.132580 -0.522441 5.246168 -5.715896 -15.628143 
0.113132 45.508324 -14.492599 4.659301 -6.540999 35.952621 -0.000000 -0.000002 -0.000000 -7.884522 1.741208 -73.178200 -14.214493 15.292586 33.080036 -0.954937 -15.993991 -0.145955 -2.000757 -0.069240 1.990978 -38.212860 -30.926960 -52.053795 5.255518 7.673823 -64.408791 -77.660995 26.430416 18.319715 1.990970 -0.069577 -2.000746 83.338745 9.805272 54.109768 -14.216146 -3.120619 103.916115 -99.273331 -41.828148 -85.111107 12.110369 -6.653960 -3.081860 -11.118312 49.060886 5.763689 -6.079779 -33.276371 -2.606365 -28.547400 -17.014277 -17.139681 11.697204 33.989697 -0.893108 4.938333 -6.681947 -14.510721 
0.614227 45.521809 -13.351689 3.514554 -7.261849 29.859459 -0.000000 -0.000002 -0.000000 -7.042889 1.318107 -71.673103 -17.594378 12.867602 35.345245 -0.954937 -15.993991 -0.145955 -2.000757 -0.069240 1.990978 -52.879196 -36.475441 -69.476746 5.706147 6.587710 -75.501099 -34.850933 17.650818 3.177076 1.990970 -0.069577 -2.000746 82.164452 -8.672077 102.525826 -14.004506 -3.941988 107.199867 -71.895546 -46.131073 -82.649025 11.563609 -3.097765 -3.092638 -10.563898 47.951294 5.295486 -5.345597 -35.705715 3.575541 -25.755194 -19.580105 -10.227627 12.009848 34.104370 -1.089695 6.023198 -6.273614 -15.685943 
0.544726 45.487869 -12.121476 0.186509 -5.820289 19.452499 -0.000000 -0.000002 -0.000000 -6.201928 0.893179 -70.157898 -22.773109 8.646654 42.498100 -0.954937 -15.993991 -0.145955 -2.000757 -0.069240 1.990978 -65.341866 -34.821285 -82.727638 5.834902 6.066285 -80.536751 -0.388469 1.271738 -6.232006 1.990970 -0.069577 -2.000746 86.845779 -18.733791 147.773865 -14.165944 -3.345688 104.807480 -45.638828 -49.098309 -79.024773 12.597692 -0.162146 0.864428 -9.579890 45.430122 4.604258 -3.028409 -36.886997 5.502772 -20.258535 -25.132071 -2.741153 11.361977 31.859898 -0.798947 6.527341 -3.516923 -14.748357 
-0.095402 45.416435 -10.801915 -5.830805 0.903482 1.009236 -0.000000 -0.000002 -0.000000 -3.457236 0.623863 -33.936913 -24.559746 17.954203 16.862236 -0.954937 -15.993991 -0.145955 -2.000757 -0.069240 1.990978 -67.370537 14.574740 -90.398827 4.915525 8.221948 -58.266930 22.725754 -26.626240 -26.866970 1.990970 -0.069577 -2.000746 50.508602 -51.660076 157.536438 -14.107538 4.197122 75.841469 -24.572029 -51.798729 -78.456818 14.250628 1.229792 9.309567 -8.345708 41.754349 3.760559 1.939833 -37.014919 8.230085 -8.060128 -32.936092 7.442439 7.839337 22.833374 0.693684 7.286599 4.394695 -8.406895 
-0.735530 45.414375 -9.482402 -9.157321 9.026062 -15.574328 -0.000000 -0.000002 -0.000000 -1.064834 1.542703 -2.871914 -23.019650 27.966423 -4.086380 -0.954937 -15.993991 -0.145955 -2.000757 -0.069240 1.990978 -57.927715 45.144730 -89.551384 4.521518 8.748929 -52.022884 22.512547 -44.158054 -27.905737 1.990970 -0.069577 -2.000746 -8.308924 -46.061615 104.322914 -12.635118 7.759084 61.006866 -22.235636 -57.516502 -83.455399 15.592000 2.642509 18.039011 -7.356168 38.556999 3.111414 5.842631 -35.914673 9.019932 5.188580 -35.059097 20.209164 3.813250 9.971165 1.704466 9.251113 13.432208 -3.240963 
-1.137234 45.440540 -8.267533 -9.842892 15.897791 -28.489952 -0.000000 -0.000002 -0.000000 0.733431 3.007567 23.047457 -18.364191 37.113750 -21.400293 -0.954937 -15.993991 -0.145955 -2.000757 -0.069240 1.990978 -42.271805 58.822495 -88.966980 5.064217 8.010998 -60.681156 17.378725 -53.906250 -14.354885 1.990970 -0.069577 -2.000746 -19.676729 -24.211983 72.153481 -12.592149 7.829504 60.689445 -34.901890 -64.452072 -96.517151 16.236940 3.889259 26.969070 -6.512947 35.829613 2.592169 8.230244 -30.556093 4.915502 15.193452 -36.862888 32.204151 3.162202 4.925686 1.633921 10.191784 18.643353 -0.360585 
-1.538933 45.435089 -7.052727 -8.872774 21.821472 -39.618397 -0.000000 -0.000002 -0.000000 1.705986 5.105166 48.949718 -2.658350 37.821674 -47.598030 -0.954937 -15.993991 -0.145955 -2.000757 -0.069240 1.990978 -12.865983 62.779095 -102.509201 5.591635 6.898498 -72.380989 9.929627 -60.622341 2.429218 1.990970 -0.069577 -2.000746 -12.770270 -11.554777 39.566235 -12.888989 7.305469 63.044357 -57.797245 -68.492531 -117.297920 16.513643 4.985145 35.943119 -5.698226 33.160080 2.128659 10.602369 -25.073877 -2.014453 24.072418 -38.095016 43.667248 3.177307 3.203279 1.410504 10.936800 20.379215 1.621513 
